<svg xmlns="http://www.w3.org/2000/svg" viewBox="0 0 32 32" fill="none" role="img" aria-label="NomadIndex">
  <rect width="32" height="32" rx="7" fill="#0a3d6e"/>
  <path fill="#ffffff" d="M7.90 24.38L4.39 24.38L4.39 7.62L8.21 7.62L13.51 16.10Q13.92 16.75 14.33 17.52Q14.75 18.28 15.18 19.22Q15.62 20.15 16.05 21.32L15.70 21.32Q15.62 20.39 15.56 19.33Q15.49 18.27 15.45 17.30Q15.40 16.34 15.40 15.66L15.40 7.62L18.91 7.62L18.91 24.38L15.08 24.38L10.26 16.68Q9.73 15.82 9.28 15Q8.83 14.19 8.34 13.20Q7.85 12.22 7.18 10.84L7.62 10.84Q7.69 12.06 7.75 13.17Q7.82 14.29 7.86 15.19Q7.90 16.10 7.90 16.67 M20.07 7.62H27.62V9.88H20.07ZM22.17 9.88H25.52V22.12H22.17ZM20.07 22.12H27.62V24.38H20.07Z"/>
</svg>